<svg width="1264" height="1400" viewBox="0 0 1264 1400" fill="none" xmlns="http://www.w3.org/2000/svg">
<path d="M633.155 384.476C739.326 384.476 825.395 298.407 825.395 192.236C825.395 86.0649 739.326 -0.00390625 633.155 -0.00390625C526.984 -0.00390625 440.915 86.0649 440.915 192.236C440.915 298.407 526.984 384.476 633.155 384.476Z" fill="black"/>
<path d="M1167.38 786.361C1075.44 733.425 957.732 764.768 904.796 856.709C886.686 888.053 878.328 922.879 879.025 957.008C881.114 1041.98 804.497 1085.86 732.059 1041.98C729.273 1040.59 726.486 1038.5 723.004 1037.11C649.869 996.014 649.869 908.948 723.004 868.55C782.905 835.814 823.999 772.43 823.999 699.295C823.999 697.902 823.999 696.509 823.999 695.116C821.91 610.141 898.527 566.26 970.966 610.141C1028.78 645.663 1104 648.449 1166.69 612.23C1258.63 559.295 1289.97 441.582 1237.04 349.642C1184.1 257.701 1066.39 226.357 974.448 279.293C911.761 315.512 876.935 382.378 878.328 449.941C880.418 534.916 803.8 578.797 732.059 534.916C702.805 516.807 668.675 506.359 631.76 506.359C594.844 506.359 560.714 516.807 531.46 534.22C459.022 577.404 383.101 533.523 385.191 449.244C386.584 380.985 351.758 314.816 289.071 278.596C197.13 225.661 79.4178 257.701 26.4821 349.642C-26.4535 441.582 5.58649 559.295 97.5274 612.23C160.214 648.449 235.439 644.967 293.25 610.141C365.688 566.26 441.609 610.141 439.52 695.116C439.52 696.509 439.52 697.902 439.52 699.295C439.52 772.43 479.918 835.814 540.515 868.55C613.65 909.645 613.65 996.71 540.515 1037.11C537.729 1038.5 534.943 1040.59 532.157 1041.98C459.719 1085.17 383.798 1041.29 385.887 957.008C386.584 922.879 378.226 888.053 360.116 856.013C307.18 764.072 189.468 732.729 97.5274 785.664C5.58649 839.993 -25.757 957.705 27.1787 1049.65C80.1143 1141.59 197.826 1172.93 289.767 1119.99C291.16 1119.3 291.857 1118.6 293.25 1117.9C365.688 1074.02 441.609 1117.9 439.52 1202.88C439.52 1204.27 439.52 1205.67 439.52 1207.76C439.52 1313.63 525.888 1400 631.76 1400C737.631 1400 823.999 1313.63 823.999 1207.76C823.999 1206.36 823.999 1204.97 823.999 1203.58C821.91 1118.6 898.527 1074.72 970.966 1118.6C972.359 1119.3 973.752 1119.99 975.145 1121.39C1067.09 1174.32 1184.8 1142.98 1237.73 1051.04C1290.67 957.008 1259.33 839.296 1167.38 786.361Z" fill="black"/>
</svg>
